<?xml version="1.0" encoding="utf-8"?>
<svg version="1.1" xmlns="http://www.w3.org/2000/svg" xmlns:xlink="http://www.w3.org/1999/xlink" height="111" width="111">
  <defs>
    <rect id="rect-1" opacity="1" x="0" y="0" width="111" height="111" rx="0" ry="0"/>
    <mask id="mask-2" maskUnits="userSpaceOnUse" maskContentUnits="userSpaceOnUse" x="0" y="0">
      <rect opacity="1" x="0" y="0" width="111" height="111" fill="black"/>
      <use xlink:href="#rect-1" fill="white"/>
    </mask>
    <path id="path-3" opacity="1" fill-rule="evenodd" d="M46.51061309780614,28.90644665842086 C38.26400268460367,29.17520796153958 31.525918566499218,33.41336697225783 30.101199287795538,36.67985050246995 C28.626195799255267,40.0497037646508 32.414272940279155,42.1377723504193 32.63217118290443,46.54132293228753 C32.850069425529696,50.94487351415576 31.57620277633583,65.74741913207902 35.36427991735972,65.99550648880398 C39.152357058383615,66.26426779192269 46.51061309780614,65.72674518568525 46.51061309780614,65.72674518568525 C46.51061309780614,65.72674518568525 53.86886913722867,66.24359384552895 57.656946278252576,65.99550648880398 C61.44502341927648,65.72674518568525 60.18791817336147,50.94487351415576 60.38905501270786,46.54132293228752 C60.606953255333124,42.13777235041929 64.39503039635701,40.04970376465079 62.920026907816755,36.67985050246994 C61.49530762911307,33.41336697225783 54.757223511008604,29.17520796153958 46.51061309780614,28.90644665842086Z"/>
    <path id="path-4" opacity="1" fill-rule="evenodd" d="M63.1736656082614,28.90644665842086 C60.11552333004359,29.00987392541719 57.264712731704954,29.609752073995885 54.79401021314481,30.499226570164303 C59.04430965066787,32.092006481907745 62.1197295688756,34.512204529621805 63.05272212833188,36.560064416149096 C64.5731544474458,39.931793320229374 60.66840780972139,42.021024113555185 60.44379848985227,46.427025687598736 C60.236466809973095,50.83302726164229 61.53228980921793,65.6438118955164 57.62754317149351,65.89203733630757 C55.8997791725004,66.01615005670317 53.44635429393017,65.97477914990463 51.234816375219,65.89203733630757 C51.37303749513844,65.95409369650537 51.52853625504783,65.9954646033039 51.68403501495721,65.9954646033039 C55.58878165268165,66.26437549749434 63.1736656082614,65.72655370911343 63.1736656082614,65.72655370911343 C63.1736656082614,65.72655370911343 70.75854956384116,66.24369004409508 74.66329620156559,65.9954646033039 C78.56804283929003,65.72655370911343 77.2722198400452,50.936454528638606 77.47955151992436,46.53045295459505 C77.70416083979345,42.1244513805515 81.60890747751789,40.035220587225695 80.08847515840395,36.66349168314541 C78.61987575925983,33.41587549946074 71.67426448330751,29.175357552611317 63.1736656082614,28.90644665842086Z"/>
    <path id="path-5" opacity="1" fill-rule="evenodd" d="M46.040122985839844,28 C42.056007385253906,28.122661590576172 38.41387176513672,29.103960037231445 35.489898681640625,30.453245162963867 C31.933258056640625,32.088741302490234 29.385475158691406,34.317108154296875 28.530517578125,36.279701232910156 C27.43616485595703,38.71250534057617 28.376617431640625,40.409332275390625 29.470970153808594,42.37192916870117 C30.154937744140625,43.598548889160156 30.907310485839844,44.96827697753906 30.99280548095703,46.62422180175781 C31.044097900390625,47.52374267578125 31.027000427246094,48.893470764160156 30.99280548095703,50.48808288574219 C30.87310791015625,56.907405853271484 30.719215393066406,66.63861083984375 34.65203857421875,66.90438079833984 C38.220787048339844,67.13924407958984 44.79869842529297,66.73702239990234 45.95313262939453,66.66642761230469 C46.00452423095703,66.66328430175781 46.04517364501953,66.66079711914062 46.07432556152344,66.6590576171875 C46.103477478027344,66.66079711914062 46.14411163330078,66.66328430175781 46.19549560546875,66.66642761230469 C47.34986877441406,66.73701477050781 53.92784118652344,67.13925170898438 57.496612548828125,66.90438079833984 C61.42942810058594,66.63861083984375 61.275543212890625,56.907405853271484 61.172943115234375,50.48808288574219 C61.16947937011719,50.16548538208008 61.16532897949219,49.85209655761719 61.16131591796875,49.5499382019043 C61.1455078125,48.35851287841797 61.13201904296875,47.341766357421875 61.172943115234375,46.62422180175781 C61.25843811035156,44.96827697753906 62.01080322265625,43.598548889160156 62.69477844238281,42.37192916870117 L62.72886657714844,42.30984115600586 C63.792022705078125,40.3734130859375 64.71803283691406,38.68681716918945 63.635223388671875,36.279701232910156 C62.746063232421875,34.317108154296875 60.19828796386719,32.088741302490234 56.64164733886719,30.453245162963867 C53.717681884765625,29.103960037231445 50.058441162109375,28.122661590576172 46.09142303466797,28 L46.040122985839844,28 L36.378028869628906,32.305171966552734 C39.117332458496094,31.039745330810547 42.541465759277344,30.121292114257812 46.29088592529297,29.998830795288086 C50.040313720703125,30.121292114257812 53.46443176269531,31.039745330810547 56.2037353515625,32.284759521484375 C59.336822509765625,33.73387908935547 61.545379638671875,35.550376892089844 62.23020935058594,37.08113479614258 C62.78837585449219,38.33128356933594 62.1434326171875,39.50175476074219 61.40141296386719,40.8483772277832 L61.374176025390625,40.89781951904297 C60.55238342285156,42.34693908691406 59.662109375,43.97974395751953 59.542266845703125,46.224857330322266 C59.49090576171875,47.18413162231445 59.508026123046875,48.61283874511719 59.542266845703125,50.266056060791016 L59.545135498046875,50.4521484375 C59.63099670410156,56.02363586425781 59.75807189941406,64.26895904541016 57.624755859375,64.41024780273438 C53.980224609375,64.64405059814453 47.02826690673828,64.18970489501953 46.38951110839844,64.14795684814453 C46.35912322998047,64.1459732055664 46.34302520751953,64.1449203491211 46.342247009277344,64.1449203491211 L46.239524841308594,64.1449203491211 C46.22240447998047,64.16532897949219 38.77491760253906,64.6551742553711 34.95701599121094,64.41024780273438 C32.82355499267578,64.267822265625 32.95307922363281,55.869808197021484 33.03871154785156,50.317665100097656 L33.03950500488281,50.266056060791016 C33.04296875,49.93138122558594 33.047142028808594,49.606746673583984 33.05115509033203,49.29383850097656 C33.066978454589844,48.06105422973633 33.080467224121094,47.010345458984375 33.03950500488281,46.24526596069336 C32.919654846191406,44.00015640258789 32.029380798339844,42.38775634765625 31.207595825195312,40.91823196411133 L31.199813842773438,40.90410232543945 C30.44969940185547,39.542457580566406 29.788528442382812,38.34226608276367 30.3515625,37.10154342651367 C31.03638458251953,35.57078552246094 33.24494934082031,33.73387908935547 36.378028869628906,32.305171966552734 L46.040122985839844,28Z"/>
    <path id="path-6" opacity="1" fill-rule="evenodd" d="M63.23193359375,28 C61.728271484375,28.061330795288086 60.27587890625,28.22488021850586 58.891815185546875,28.49064826965332 C57.38816833496094,28.7768611907959 55.987030029296875,29.16529083251953 54.70550537109375,29.655941009521484 L51.81779479980469,30.698570251464844 L54.70550537109375,31.782085418701172 C56.670501708984375,32.51805877685547 58.37921142578125,33.438026428222656 59.694915771484375,34.41932678222656 C61.0277099609375,35.4006233215332 61.933319091796875,36.381919860839844 62.326324462890625,37.26100158691406 C62.883392333984375,38.513206481933594 62.239715576171875,39.68559646606445 61.49916076660156,41.03443908691406 L61.47196960449219,41.08397674560547 C60.65179443359375,42.53547668457031 59.76325988769531,44.17097473144531 59.643646240234375,46.41978454589844 C59.59239196777344,47.380638122558594 59.60948181152344,48.81169891357422 59.643646240234375,50.46763610839844 L59.64649963378906,50.65384292602539 C59.732208251953125,56.2345085144043 59.85906982421875,64.49359893798828 57.72990417480469,64.6351318359375 C56.87554931640625,64.67601776123047 55.85032653808594,64.69645690917969 54.79093933105469,64.69645690917969 C53.731536865234375,64.67601776123047 52.586700439453125,64.65557098388672 51.493133544921875,64.61468505859375 L45.222190856933594,64.38980102539062 L51.168487548828125,66.76127624511719 C51.27099609375,66.80216217041016 51.37351989746094,66.84304809570312 51.493133544921875,66.86349487304688 C51.59565734863281,66.88394165039062 51.71527099609375,66.90438079833984 51.851959228515625,66.90438079833984 C55.418212890625,67.13925170898438 61.991546630859375,66.73701477050781 63.14503479003906,66.66642761230469 C63.19636535644531,66.66328430175781 63.236968994140625,66.66079711914062 63.26609802246094,66.6590576171875 C63.29522705078125,66.66079711914062 63.335845947265625,66.66328430175781 63.38720703125,66.66642761230469 C64.54080200195312,66.73702239990234 71.11404418945312,67.13925170898438 74.68025207519531,66.90438079833984 C78.61026000976562,66.63861083984375 78.45648193359375,56.907405853271484 78.35395812988281,50.48808288574219 C78.35050964355469,50.16581344604492 78.34635925292969,49.85272979736328 78.34234619140625,49.55085754394531 C78.32655334472656,48.35903549194336 78.31306457519531,47.341949462890625 78.35395812988281,46.62422180175781 C78.43939208984375,44.96827697753906 79.19122314453125,43.598548889160156 79.87471008300781,42.37192916870117 L79.90879821777344,42.30979537963867 C80.97117614746094,40.37338638305664 81.89651489257812,38.68679428100586 80.81449890136719,36.279701232910156 C79.92596435546875,34.317108154296875 77.3800048828125,32.088741302490234 73.82589721679688,30.453245162963867 C70.90400695800781,29.103960037231445 67.24739074707031,28.122661590576172 63.28318786621094,28 L63.23193359375,28 L59.32572937011719,30.448143005371094 C60.63134765625,30.20306396484375 62.005706787109375,30.039676666259766 63.41441345214844,29.998830795288086 C67.17669677734375,30.121370315551758 70.61256408691406,31.040420532226562 73.36126708984375,32.26581954956055 C76.50509643554688,33.71587371826172 78.72123718261719,35.533546447753906 79.40841674804688,37.0652961730957 C79.96847534179688,38.31624984741211 79.32133483886719,39.487464904785156 78.5767822265625,40.8349494934082 L78.5494384765625,40.88445281982422 C77.72482299804688,42.334510803222656 76.83149719238281,43.9683723449707 76.71124267578125,46.214935302734375 C76.65971374511719,47.174835205078125 76.6768798828125,48.60446548461914 76.71124267578125,50.258750915527344 L76.71212768554688,50.31639099121094 C76.79806518554688,55.892250061035156 76.92718505859375,64.2696304321289 74.78715515136719,64.41210174560547 C71.13006591796875,64.64606475830078 64.15408325195312,64.19139862060547 63.51335144042969,64.1496353149414 C63.482879638671875,64.14765167236328 63.46673583984375,64.14659881591797 63.46595764160156,64.14659881591797 L63.36286926269531,64.14659881591797 C63.36286926269531,64.14659881591797 62.12596130371094,64.2282943725586 60.40802001953125,64.30998992919922 C61.79124450683594,61.04143524169922 61.69764709472656,54.78616714477539 61.628997802734375,50.198150634765625 L61.62776184082031,50.11579132080078 C61.62428283691406,49.79373550415039 61.6201171875,49.480865478515625 61.6160888671875,49.17919921875 C61.60020446777344,47.98869705200195 61.586639404296875,46.972740173339844 61.62776184082031,46.25578308105469 C61.713653564453125,44.601497650146484 62.46954345703125,43.23313522338867 63.15672302246094,42.00773620605469 L63.19096374511719,41.945716857910156 C64.25910949707031,40.01121520996094 65.189453125,38.32630157470703 64.10159301757812,35.92158889770508 C63.551849365234375,34.71661376953125 62.40083312988281,33.42994689941406 60.78596496582031,32.24539566040039 C60.04725646972656,31.714387893676758 59.18829345703125,31.162960052490234 58.22624206542969,30.672800064086914 C58.587005615234375,30.591106414794922 58.94776916503906,30.50941276550293 59.32572937011719,30.448143005371094 L63.23193359375,28Z"/>
    <path id="path-7" opacity="1" fill-rule="evenodd" d="M63.26006108136005,29.81289331684177 L46.081140072587004,29.732676798397442 L46.09854526104574,28 L63.26006108136005,28.080216518444328 L63.26006108136005,29.81289331684177Z"/>
    <path id="path-8" opacity="1" fill-rule="evenodd" d="M45.351607383469904,42.11917534103238 C45.62350515712689,41.58203040152803 46.15130671775514,41.43162981846682 46.55115638489776,41.79688837732977 C46.95100605204038,42.16214693619273 47.062963958840314,42.87117825633847 46.791066185183325,43.40832319584281 L41.656996459072126,53.76447762948661 C41.385098685415144,54.30162256899096 40.85729712478689,54.45202315205218 40.45744745764428,54.08676459318922 C40.05759779050166,53.72150603432627 39.945639883701716,53.01247471418053 40.217537657358704,52.47532977467618 L45.351607383469904,42.11917534103238Z"/>
    <path id="path-9" opacity="1" fill-rule="evenodd" d="M51.36422973654053,43.025621999453236 C51.63612751019752,42.48847705994889 52.16392907082577,42.33807647688768 52.56377873796839,42.703335035750634 C52.96362840511101,43.06859359461358 53.07558631191095,43.77762491475932 52.803688538253965,44.314769854263666 L47.669618812142716,54.67092428790742 C47.39772103848573,55.20806922741176 46.86991947785748,55.358469810472975 46.47006981071486,54.99321125161002 C46.07022014357224,54.62795269274707 45.9582622367723,53.91892137260133 46.23016001042929,53.38177643309699 L51.36422973654053,43.025621999453236Z"/>
  </defs>
  <g opacity="1">
    <g opacity="1">
      <use xlink:href="#rect-1" fill="rgb(59,18,27)" fill-opacity="1"/>
      <use xlink:href="#rect-1" fill-opacity="0" stroke="rgb(59,18,27)" stroke-opacity="1" stroke-width="4" mask="url(#mask-2)"/>
    </g>
    <g opacity="1">
      <g opacity="1">
        <g opacity="1">
          <use xlink:href="#path-3" fill="rgb(255,255,255)" fill-opacity="1"/>
        </g>
        <g opacity="1">
          <use xlink:href="#path-4" fill="rgb(240,198,93)" fill-opacity="1"/>
        </g>
        <g opacity="1">
          <use xlink:href="#path-5" fill="rgb(59,18,27)" fill-opacity="1"/>
        </g>
        <g opacity="1">
          <use xlink:href="#path-6" fill="rgb(59,18,27)" fill-opacity="1"/>
        </g>
        <g opacity="1">
          <use xlink:href="#path-7" fill="rgb(59,18,27)" fill-opacity="1"/>
        </g>
        <g opacity="1">
          <use xlink:href="#path-8" fill="rgb(59,18,27)" fill-opacity="1"/>
        </g>
        <g opacity="1">
          <use xlink:href="#path-9" fill="rgb(59,18,27)" fill-opacity="1"/>
        </g>
      </g>
    </g>
  </g>
</svg>